<?xml version="1.0" encoding="UTF-8" standalone="no"?>
<!-- Created with Inkscape (http://www.inkscape.org/) -->

<svg
   width="4000"
   height="3000"
   viewBox="0 0 1058.3334 793.75"
   version="1.1"
   id="svg1"
   xml:space="preserve"
   inkscape:version="1.3 (0e150ed6c4, 2023-07-21)"
   sodipodi:docname="logo.svg"
   xmlns:inkscape="http://www.inkscape.org/namespaces/inkscape"
   xmlns:sodipodi="http://sodipodi.sourceforge.net/DTD/sodipodi-0.dtd"
   xmlns="http://www.w3.org/2000/svg"
   xmlns:svg="http://www.w3.org/2000/svg"><sodipodi:namedview
     id="namedview1"
     pagecolor="#ffffff"
     bordercolor="#999999"
     borderopacity="1"
     inkscape:showpageshadow="2"
     inkscape:pageopacity="0"
     inkscape:pagecheckerboard="0"
     inkscape:deskcolor="#d1d1d1"
     inkscape:document-units="mm"
     showgrid="true"
     inkscape:zoom="0.088388348"
     inkscape:cx="2149.6046"
     inkscape:cy="1685.7426"
     inkscape:window-width="1920"
     inkscape:window-height="1056"
     inkscape:window-x="0"
     inkscape:window-y="24"
     inkscape:window-maximized="1"
     inkscape:current-layer="layer1" /><defs
     id="defs1"><linearGradient
       id="linearGradient2"
       inkscape:label="gradient"><stop
         style="stop-color:#add9ff;stop-opacity:1;"
         offset="0"
         id="stop1" /><stop
         style="stop-color:#ffffff;stop-opacity:1;"
         offset="1"
         id="stop2" /></linearGradient><inkscape:path-effect
       effect="fillet_chamfer"
       id="path-effect1"
       is_visible="true"
       lpeversion="1"
       nodesatellites_param="F,0,0,1,0,1.6711978,0,1 @ F,0,0,1,0,1.6711978,0,1 @ F,0,0,1,0,1.6711978,0,1 @ F,0,0,1,0,1.6711978,0,1"
       radius="100"
       unit="px"
       method="auto"
       mode="F"
       chamfer_steps="1"
       flexible="false"
       use_knot_distance="true"
       apply_no_radius="true"
       apply_with_radius="true"
       only_selected="false"
       hide_knots="false" /><linearGradient
       id="swatch14"
       inkscape:label="gradient"><stop
         style="stop-color:#ffffff;stop-opacity:1;"
         offset="0"
         id="stop17" /><stop
         style="stop-color:#ffffff;stop-opacity:1;"
         offset="1"
         id="stop18" /></linearGradient></defs><g
     inkscape:label="Layer 1"
     inkscape:groupmode="layer"
     id="layer1"><path
       style="opacity:0.8;fill:#1b598e;fill-opacity:1;stroke:#ffffff;stroke-width:2.29658;stroke-linecap:round;stroke-linejoin:round;stroke-opacity:0.84;paint-order:markers fill stroke"
       id="rect1"
       width="1146.2242"
       height="573.11212"
       x="88.346214"
       y="110.31894"
       ry="1.4210515"
       inkscape:label="background"
       inkscape:path-effect="#path-effect1"
       sodipodi:type="rect"
       d="M 90.017412,110.31894 H 1232.8993 a 1.6711978,1.6711978 45 0 1 1.6712,1.6712 v 569.76972 a 1.6711978,1.6711978 135 0 1 -1.6712,1.6712 H 90.017412 a 1.6711978,1.6711978 45 0 1 -1.671198,-1.6712 V 111.99014 a 1.6711978,1.6711978 135 0 1 1.671198,-1.6712 z"
       transform="matrix(0.72347488,0,0,1.0005978,50.618176,-0.23725188)" /><path
       d="m 847.75297,375.45482 h -38.7595 v 38.76747 h -38.7675 v -38.76747 h -38.7555 v -38.7555 h 38.7555 v -38.7595 h 38.7675 v 38.7595 h 38.7595 v 38.7555 m -141.43108,0 h -38.75551 v 38.76747 h -38.75949 v -38.76747 h -38.7595 v -38.7555 h 38.7595 v -38.7595 h 38.75949 v 38.7595 h 38.75551 v 38.7555"
       fill="#ffffff"
       id="path5-3"
       style="fill:#ffffff;fill-opacity:0.843137;stroke-width:3.98678" /><g
       style="fill:#ffffff;fill-opacity:0.843137"
       id="g1"
       transform="matrix(6.7925758,0,0,6.7925758,156.23976,193.09773)"><path
         d="M 51.371,3.146 C 51.168,3.065 46.311,1.149 40.556,1.149 c -3.434,0 -6.47,0.687 -9.024,2.042 C 29.269,4.392 26.199,5 22.407,5 17.099,5 11.865,3.788 10,3.307 V 1 C 10,0.447 9.553,0 9,0 8.447,0 8,0.447 8,1 V 4 C 8,4.014 8.007,4.026 8.008,4.04 8.008,4.052 8,4.062 8,4.074 V 33 34.074 59 c 0,0.553 0.447,1 1,1 0.553,0 1,-0.447 1,-1 V 35.373 C 12.273,35.937 17.243,37 22.407,37 c 4.122,0 7.507,-0.688 10.062,-2.042 2.263,-1.201 4.983,-1.81 8.087,-1.81 5.357,0 10.027,1.836 10.073,1.854 0.309,0.124 0.657,0.086 0.932,-0.102 C 51.835,34.716 52,34.406 52,34.074 v -30 C 52,3.665 51.751,3.298 51.371,3.146 Z"
         id="path1"
         style="fill:#ffffff;fill-opacity:0.843137" /></g></g></svg>
